<svg width="32" height="32" viewBox="0 0 32 32" fill="none" xmlns="http://www.w3.org/2000/svg">
  <defs>
    <linearGradient id="gradient" x1="0%" y1="0%" x2="100%" y2="100%">
      <stop offset="0%" stop-color="#6366F1" />
      <stop offset="100%" stop-color="#8B5CF6" />
    </linearGradient>
  </defs>
  <path d="M16 2C8.268 2 2 8.268 2 16C2 23.732 8.268 30 16 30C23.732 30 30 23.732 30 16C30 8.268 23.732 2 16 2ZM16 5C22.075 5 27 9.925 27 16C27 22.075 22.075 27 16 27C9.925 27 5 22.075 5 16C5 9.925 9.925 5 16 5Z" fill="url(#gradient)"/>
  <circle cx="16" cy="16" r="6" fill="url(#gradient)" />
  <path d="M16 10L18.5 15H13.5L16 10Z" fill="white" />
  <path d="M16 22L13.5 17H18.5L16 22Z" fill="white" />
</svg>